<svg width="42" height="9" viewBox="0 0 42 9" fill="none" xmlns="http://www.w3.org/2000/svg">
<path d="M4.73 6.04C4.73 6.8 4.19 7.25 3.29 7.25H1.68V4.79H3.26C4.15 4.79 4.73 5.27 4.73 6.04ZM4.55 2.91C4.55 3.62 4.06 4.04 3.21 4.04H1.68V1.78H3.19C4.08 1.78 4.55 2.22 4.55 2.91ZM5.64 6.13C5.64 5.27 5.02 4.54 4.26 4.41C4.93 4.19 5.48 3.68 5.48 2.8C5.48 1.83 4.74 1.03 3.27 1.03H0.77V8H3.37C4.81 8 5.64 7.18 5.64 6.13ZM9.23281 3.2C10.1728 3.2 10.9728 3.79 10.9628 4.86H7.50281C7.60281 3.79 8.34281 3.2 9.23281 3.2ZM11.7928 6.31H10.8128C10.6128 6.9 10.0928 7.32 9.27281 7.32C8.34281 7.32 7.56281 6.71 7.49281 5.6H11.8728C11.8928 5.41 11.9028 5.25 11.9028 5.05C11.9028 3.55 10.8628 2.43 9.27281 2.43C7.67281 2.43 6.56281 3.52 6.56281 5.25C6.56281 6.99 7.71281 8.09 9.27281 8.09C10.6328 8.09 11.5128 7.31 11.7928 6.31ZM14.014 5.02C14.014 3.75 14.674 3.36 15.544 3.36H15.784V2.42C14.914 2.42 14.324 2.8 14.014 3.41V2.52H13.104V8H14.014V5.02ZM16.4945 5.24C16.4945 6.94 17.6245 8.09 19.0845 8.09C20.0945 8.09 20.8045 7.57 21.1345 6.98V8H22.0545V2.52H21.1345V3.52C20.8145 2.95 20.1145 2.43 19.0945 2.43C17.6245 2.43 16.4945 3.53 16.4945 5.24ZM21.1345 5.25C21.1345 6.54 20.2745 7.29 19.2745 7.29C18.2745 7.29 17.4245 6.53 17.4245 5.24C17.4245 3.95 18.2745 3.22 19.2745 3.22C20.2745 3.22 21.1345 3.98 21.1345 5.25ZM27.6023 8H28.5023V4.77C28.5023 3.2 27.5323 2.42 26.2623 2.42C25.5223 2.42 24.8623 2.73 24.5023 3.3V2.52H23.5923V8H24.5023V4.97C24.5023 3.79 25.1423 3.21 26.0723 3.21C26.9923 3.21 27.6023 3.78 27.6023 4.9V8ZM29.6488 5.24C29.6488 6.94 30.7788 8.09 32.2488 8.09C33.2488 8.09 33.9588 7.58 34.2888 6.97V8H35.2088V0.6H34.2888V3.5C33.9088 2.87 33.1188 2.43 32.2588 2.43C30.7788 2.43 29.6488 3.53 29.6488 5.24ZM34.2888 5.25C34.2888 6.54 33.4288 7.29 32.4288 7.29C31.4288 7.29 30.5788 6.53 30.5788 5.24C30.5788 3.95 31.4288 3.22 32.4288 3.22C33.4288 3.22 34.2888 3.98 34.2888 5.25ZM36.4066 5.24C36.4066 6.94 37.5366 8.09 38.9966 8.09C40.0066 8.09 40.7166 7.57 41.0466 6.98V8H41.9666V2.52H41.0466V3.52C40.7266 2.95 40.0266 2.43 39.0066 2.43C37.5366 2.43 36.4066 3.53 36.4066 5.24ZM41.0466 5.25C41.0466 6.54 40.1866 7.29 39.1866 7.29C38.1866 7.29 37.3366 6.53 37.3366 5.24C37.3366 3.95 38.1866 3.22 39.1866 3.22C40.1866 3.22 41.0466 3.98 41.0466 5.25Z" fill="white"/>
</svg>
