<svg width="27" height="27" viewBox="0 0 27 27" fill="none" xmlns="http://www.w3.org/2000/svg">
<path d="M26.2747 11.7437C26.2741 11.7431 26.2735 11.7425 26.2729 11.7418L15.2579 0.728394C14.7884 0.258728 14.1642 0 13.5002 0C12.8362 0 12.212 0.258522 11.7422 0.728188L0.733028 11.7361C0.72932 11.7398 0.725611 11.7437 0.721903 11.7474C-0.242246 12.717 -0.240597 14.2902 0.726641 15.2573C1.16854 15.6994 1.75218 15.9554 2.3762 15.9822C2.40154 15.9847 2.42709 15.9859 2.45284 15.9859H2.89186V24.0912C2.89186 25.695 4.19696 27 5.8014 27H10.1108C10.5476 27 10.9019 26.6459 10.9019 26.209V19.8545C10.9019 19.1226 11.4973 18.5273 12.2293 18.5273H14.7711C15.503 18.5273 16.0984 19.1226 16.0984 19.8545V26.209C16.0984 26.6459 16.4526 27 16.8895 27H21.1989C22.8034 27 24.1085 25.695 24.1085 24.0912V15.9859H24.5156C25.1793 15.9859 25.8036 15.7274 26.2735 15.2577C27.2418 14.289 27.2422 12.7131 26.2747 11.7437Z" fill="white"/>
</svg>
